<?xml version="1.0" encoding="UTF-8" standalone="no"?>
<!DOCTYPE svg PUBLIC "-//W3C//DTD SVG 1.1//EN"
 "http://www.w3.org/Graphics/SVG/1.1/DTD/svg11.dtd">
<!-- Generated by graphviz version 2.47.0 (20210316.0004)
 -->
<!-- Title: dependencies Pages: 1 -->
<svg width="774pt" height="290pt"
 viewBox="0.00 0.00 774.00 290.00" xmlns="http://www.w3.org/2000/svg" xmlns:xlink="http://www.w3.org/1999/xlink">
<g id="graph0" class="graph" transform="scale(1 1) rotate(0) translate(4 286)">
<title>dependencies</title>
<polygon fill="white" stroke="transparent" points="-4,4 -4,-286 770,-286 770,4 -4,4"/>
<text text-anchor="start" x="362.01" y="-42.4" font-family="Times-12" font-weight="bold" font-size="14.00">Legend</text>
<polygon fill="#ffffb3" stroke="transparent" points="149,-10 149,-30 169,-30 169,-10 149,-10"/>
<text text-anchor="start" x="172.63" y="-15.4" font-family="Times-12" font-size="14.00"> &#160;Declarations</text>
<polygon fill="#8dd3c7" stroke="transparent" points="262,-10 262,-30 282,-30 282,-10 262,-10"/>
<text text-anchor="start" x="285.73" y="-15.4" font-family="Times-12" font-size="14.00"> &#160;Module</text>
<polygon fill="#80b1d3" stroke="transparent" points="348,-10 348,-30 368,-30 368,-10 348,-10"/>
<text text-anchor="start" x="371.78" y="-15.4" font-family="Times-12" font-size="14.00"> &#160;Bootstrap</text>
<polygon fill="#fdb462" stroke="transparent" points="445,-10 445,-30 465,-30 465,-10 445,-10"/>
<text text-anchor="start" x="468.67" y="-15.4" font-family="Times-12" font-size="14.00"> &#160;Providers</text>
<polygon fill="#fb8072" stroke="transparent" points="541,-10 541,-30 561,-30 561,-10 541,-10"/>
<text text-anchor="start" x="564.73" y="-15.4" font-family="Times-12" font-size="14.00"> &#160;Exports</text>
<g id="clust1" class="cluster">
<title>cluster_AppModule</title>
<polygon fill="none" stroke="black" stroke-dasharray="1,5" points="8,-70 8,-274 476,-274 476,-70 8,-70"/>
</g>
<g id="clust3" class="cluster">
<title>cluster_AppModule_imports</title>
<polygon fill="none" stroke="black" points="360,-78 360,-130 468,-130 468,-78 360,-78"/>
</g>
<g id="clust4" class="cluster">
<title>cluster_AppModule_exports</title>
<polygon fill="none" stroke="black" points="210,-214 210,-266 366,-266 366,-214 210,-214"/>
</g>
<g id="clust6" class="cluster">
<title>cluster_AppModule_providers</title>
<polygon fill="none" stroke="black" points="16,-78 16,-130 352,-130 352,-78 16,-78"/>
</g>
<g id="clust7" class="cluster">
<title>cluster_RedisModule</title>
<polygon fill="none" stroke="black" stroke-dasharray="1,5" points="484,-138 484,-206 758,-206 758,-138 484,-138"/>
</g>
<g id="clust10" class="cluster">
<title>cluster_RedisModule_exports</title>
<polygon fill="none" stroke="black" points="640,-146 640,-198 750,-198 750,-146 640,-146"/>
</g>
<g id="clust12" class="cluster">
<title>cluster_RedisModule_providers</title>
<polygon fill="none" stroke="black" points="492,-146 492,-198 632,-198 632,-146 492,-146"/>
</g>
<!-- RedisModule -->
<g id="node1" class="node">
<title>RedisModule</title>
<polygon fill="#8dd3c7" stroke="black" points="459.94,-122 456.94,-126 435.94,-126 432.94,-122 368.06,-122 368.06,-86 459.94,-86 459.94,-122"/>
<text text-anchor="middle" x="414" y="-99.8" font-family="Times,serif" font-size="14.00">RedisModule</text>
</g>
<!-- AppModule -->
<g id="node2" class="node">
<title>AppModule</title>
<polygon fill="#8dd3c7" stroke="black" points="329.66,-190 326.66,-194 305.66,-194 302.66,-190 246.34,-190 246.34,-154 329.66,-154 329.66,-190"/>
<text text-anchor="middle" x="288" y="-167.8" font-family="Times,serif" font-size="14.00">AppModule</text>
</g>
<!-- RedisModule&#45;&gt;AppModule -->
<g id="edge1" class="edge">
<title>RedisModule&#45;&gt;AppModule</title>
<path fill="none" stroke="black" d="M398.76,-122.29C398.76,-144.21 398.76,-178 398.76,-178 398.76,-178 339.87,-178 339.87,-178"/>
<polygon fill="black" stroke="black" points="339.87,-174.5 329.87,-178 339.87,-181.5 339.87,-174.5"/>
</g>
<!-- RedisService  -->
<g id="node6" class="node">
<title>RedisService </title>
<polygon fill="#fb8072" stroke="black" points="741.86,-190 648.14,-190 648.14,-154 741.86,-154 741.86,-190"/>
<text text-anchor="middle" x="695" y="-167.8" font-family="Times,serif" font-size="14.00">RedisService </text>
</g>
<!-- RedisModule&#45;&gt;RedisService  -->
<g id="edge5" class="edge">
<title>RedisModule&#45;&gt;RedisService </title>
<path fill="none" stroke="black" stroke-dasharray="5,2" d="M459.77,-104C539.4,-104 695,-104 695,-104 695,-104 695,-143.78 695,-143.78"/>
<polygon fill="black" stroke="black" points="691.5,-143.78 695,-153.78 698.5,-143.78 691.5,-143.78"/>
</g>
<!-- RoutingServiceClient  -->
<g id="node3" class="node">
<title>RoutingServiceClient </title>
<polygon fill="#fb8072" stroke="black" points="358.32,-258 217.68,-258 217.68,-222 358.32,-222 358.32,-258"/>
<text text-anchor="middle" x="288" y="-235.8" font-family="Times,serif" font-size="14.00">RoutingServiceClient </text>
</g>
<!-- AppModule&#45;&gt;RoutingServiceClient  -->
<g id="edge2" class="edge">
<title>AppModule&#45;&gt;RoutingServiceClient </title>
<path fill="none" stroke="black" stroke-dasharray="5,2" d="M288,-190.22C288,-190.22 288,-211.73 288,-211.73"/>
<polygon fill="black" stroke="black" points="284.5,-211.73 288,-221.73 291.5,-211.73 284.5,-211.73"/>
</g>
<!-- GeoService -->
<g id="node4" class="node">
<title>GeoService</title>
<ellipse fill="#fdb462" stroke="black" cx="288" cy="-104" rx="56.16" ry="18"/>
<text text-anchor="middle" x="288" y="-99.8" font-family="Times,serif" font-size="14.00">GeoService</text>
</g>
<!-- GeoService&#45;&gt;AppModule -->
<g id="edge3" class="edge">
<title>GeoService&#45;&gt;AppModule</title>
<path fill="none" stroke="black" d="M288,-122.22C288,-122.22 288,-143.73 288,-143.73"/>
<polygon fill="black" stroke="black" points="284.5,-143.73 288,-153.73 291.5,-143.73 284.5,-143.73"/>
</g>
<!-- RoutingServiceClient -->
<g id="node5" class="node">
<title>RoutingServiceClient</title>
<ellipse fill="#fdb462" stroke="black" cx="119" cy="-104" rx="94.94" ry="18"/>
<text text-anchor="middle" x="119" y="-99.8" font-family="Times,serif" font-size="14.00">RoutingServiceClient</text>
</g>
<!-- RoutingServiceClient&#45;&gt;AppModule -->
<g id="edge4" class="edge">
<title>RoutingServiceClient&#45;&gt;AppModule</title>
<path fill="none" stroke="black" d="M119,-122.22C119,-142.37 119,-172 119,-172 119,-172 236.22,-172 236.22,-172"/>
<polygon fill="black" stroke="black" points="236.22,-175.5 246.22,-172 236.22,-168.5 236.22,-175.5"/>
</g>
<!-- RedisService -->
<g id="node7" class="node">
<title>RedisService</title>
<ellipse fill="#fdb462" stroke="black" cx="562" cy="-172" rx="61.97" ry="18"/>
<text text-anchor="middle" x="562" y="-167.8" font-family="Times,serif" font-size="14.00">RedisService</text>
</g>
<!-- RedisService&#45;&gt;RedisModule -->
<g id="edge6" class="edge">
<title>RedisService&#45;&gt;RedisModule</title>
<path fill="none" stroke="black" d="M503.38,-166C467.82,-166 429.24,-166 429.24,-166 429.24,-166 429.24,-132.27 429.24,-132.27"/>
<polygon fill="black" stroke="black" points="432.74,-132.27 429.24,-122.27 425.74,-132.27 432.74,-132.27"/>
</g>
</g>
</svg>
