<?xml version="1.0" encoding="UTF-8" standalone="no"?>
<!DOCTYPE svg PUBLIC "-//W3C//DTD SVG 1.1//EN"
 "http://www.w3.org/Graphics/SVG/1.1/DTD/svg11.dtd">
<!-- Generated by graphviz version 2.47.0 (20210316.0004)
 -->
<!-- Title: dependencies Pages: 1 -->
<svg width="504pt" height="284pt"
 viewBox="0.00 0.00 504.00 284.00" xmlns="http://www.w3.org/2000/svg" xmlns:xlink="http://www.w3.org/1999/xlink">
<g id="graph0" class="graph" transform="scale(1 1) rotate(0) translate(4 280)">
<title>dependencies</title>
<polygon fill="white" stroke="transparent" points="-4,4 -4,-280 500,-280 500,4 -4,4"/>
<text text-anchor="start" x="227.01" y="-42.4" font-family="Times-12" font-weight="bold" font-size="14.00">Legend</text>
<polygon fill="#ffffb3" stroke="transparent" points="14,-10 14,-30 34,-30 34,-10 14,-10"/>
<text text-anchor="start" x="37.63" y="-15.4" font-family="Times-12" font-size="14.00"> &#160;Declarations</text>
<polygon fill="#8dd3c7" stroke="transparent" points="127,-10 127,-30 147,-30 147,-10 127,-10"/>
<text text-anchor="start" x="150.73" y="-15.4" font-family="Times-12" font-size="14.00"> &#160;Module</text>
<polygon fill="#80b1d3" stroke="transparent" points="213,-10 213,-30 233,-30 233,-10 213,-10"/>
<text text-anchor="start" x="236.78" y="-15.4" font-family="Times-12" font-size="14.00"> &#160;Bootstrap</text>
<polygon fill="#fdb462" stroke="transparent" points="310,-10 310,-30 330,-30 330,-10 310,-10"/>
<text text-anchor="start" x="333.67" y="-15.4" font-family="Times-12" font-size="14.00"> &#160;Providers</text>
<polygon fill="#fb8072" stroke="transparent" points="406,-10 406,-30 426,-30 426,-10 406,-10"/>
<text text-anchor="start" x="429.73" y="-15.4" font-family="Times-12" font-size="14.00"> &#160;Exports</text>
<g id="clust1" class="cluster">
<title>cluster_AppModule</title>
<polygon fill="none" stroke="black" stroke-dasharray="1,5" points="14,-70 14,-268 482,-268 482,-70 14,-70"/>
</g>
<g id="clust3" class="cluster">
<title>cluster_AppModule_imports</title>
<polygon fill="none" stroke="black" points="366,-78 366,-130 474,-130 474,-78 366,-78"/>
</g>
<g id="clust4" class="cluster">
<title>cluster_AppModule_exports</title>
<polygon fill="none" stroke="black" points="216,-208 216,-260 372,-260 372,-208 216,-208"/>
</g>
<g id="clust6" class="cluster">
<title>cluster_AppModule_providers</title>
<polygon fill="none" stroke="black" points="22,-78 22,-130 358,-130 358,-78 22,-78"/>
</g>
<!-- RedisModule -->
<g id="node1" class="node">
<title>RedisModule</title>
<polygon fill="#8dd3c7" stroke="black" points="465.94,-122 462.94,-126 441.94,-126 438.94,-122 374.06,-122 374.06,-86 465.94,-86 465.94,-122"/>
<text text-anchor="middle" x="420" y="-99.8" font-family="Times,serif" font-size="14.00">RedisModule</text>
</g>
<!-- AppModule -->
<g id="node2" class="node">
<title>AppModule</title>
<polygon fill="#8dd3c7" stroke="black" points="335.66,-187 332.66,-191 311.66,-191 308.66,-187 252.34,-187 252.34,-151 335.66,-151 335.66,-187"/>
<text text-anchor="middle" x="294" y="-164.8" font-family="Times,serif" font-size="14.00">AppModule</text>
</g>
<!-- RedisModule&#45;&gt;AppModule -->
<g id="edge1" class="edge">
<title>RedisModule&#45;&gt;AppModule</title>
<path fill="none" stroke="black" d="M420,-122.11C420,-141.34 420,-169 420,-169 420,-169 345.96,-169 345.96,-169"/>
<polygon fill="black" stroke="black" points="345.96,-165.5 335.96,-169 345.96,-172.5 345.96,-165.5"/>
</g>
<!-- RoutingServiceClient  -->
<g id="node3" class="node">
<title>RoutingServiceClient </title>
<polygon fill="#fb8072" stroke="black" points="364.32,-252 223.68,-252 223.68,-216 364.32,-216 364.32,-252"/>
<text text-anchor="middle" x="294" y="-229.8" font-family="Times,serif" font-size="14.00">RoutingServiceClient </text>
</g>
<!-- AppModule&#45;&gt;RoutingServiceClient  -->
<g id="edge2" class="edge">
<title>AppModule&#45;&gt;RoutingServiceClient </title>
<path fill="none" stroke="black" stroke-dasharray="5,2" d="M294,-187.11C294,-187.11 294,-205.99 294,-205.99"/>
<polygon fill="black" stroke="black" points="290.5,-205.99 294,-215.99 297.5,-205.99 290.5,-205.99"/>
</g>
<!-- GeoService -->
<g id="node4" class="node">
<title>GeoService</title>
<ellipse fill="#fdb462" stroke="black" cx="294" cy="-104" rx="56.16" ry="18"/>
<text text-anchor="middle" x="294" y="-99.8" font-family="Times,serif" font-size="14.00">GeoService</text>
</g>
<!-- GeoService&#45;&gt;AppModule -->
<g id="edge3" class="edge">
<title>GeoService&#45;&gt;AppModule</title>
<path fill="none" stroke="black" d="M294,-122.11C294,-122.11 294,-140.99 294,-140.99"/>
<polygon fill="black" stroke="black" points="290.5,-140.99 294,-150.99 297.5,-140.99 290.5,-140.99"/>
</g>
<!-- RoutingServiceClient -->
<g id="node5" class="node">
<title>RoutingServiceClient</title>
<ellipse fill="#fdb462" stroke="black" cx="125" cy="-104" rx="94.94" ry="18"/>
<text text-anchor="middle" x="125" y="-99.8" font-family="Times,serif" font-size="14.00">RoutingServiceClient</text>
</g>
<!-- RoutingServiceClient&#45;&gt;AppModule -->
<g id="edge4" class="edge">
<title>RoutingServiceClient&#45;&gt;AppModule</title>
<path fill="none" stroke="black" d="M125,-122.11C125,-141.34 125,-169 125,-169 125,-169 242.22,-169 242.22,-169"/>
<polygon fill="black" stroke="black" points="242.22,-172.5 252.22,-169 242.22,-165.5 242.22,-172.5"/>
</g>
</g>
</svg>
